<svg xmlns="http://www.w3.org/2000/svg" width="340.574" height="99" viewBox="0 0 340.574 99">
  <g id="Group_2" data-name="Group 2" transform="translate(-200 -62)">
    <text id="Veggie_" data-name="Veggie " transform="translate(202 140)" fill="#296f51" font-size="82" font-family="Phosphate-Inline, Phosphate"><tspan x="0" y="0">Veggie </tspan></text>
    <g id="Group_1" data-name="Group 1" transform="translate(-53 -270.693)">
      <g id="Path_1" data-name="Path 1" transform="translate(540.111 385.905) rotate(-30)" fill="#296f51">
        <path d="M 21.49359130859375 39.38674926757812 C 18.95825958251953 39.38674926757812 16.39785957336426 38.62156295776367 13.88351440429688 37.1124382019043 C 11.4397144317627 35.64566040039062 9.107547760009766 33.47948455810547 7.139158725738525 30.84809494018555 C 5.092347621917725 28.11187362670898 3.474336624145508 24.97138404846191 2.330047845840454 21.51385116577148 C 1.115725517272949 17.84466171264648 0.5000032782554626 13.99643898010254 0.5000032782554626 10.07608413696289 C 0.5000032782554626 6.351395130157471 1.32074773311615 1.523805975914001 2.939447641372681 -4.272593975067139 C 4.343759059906006 -9.301271438598633 6.304669857025146 -14.86477184295654 8.610214233398438 -20.36163902282715 C 10.71812534332275 -25.38731575012207 12.98070335388184 -30.0274600982666 14.98115921020508 -33.42730331420898 C 17.93802642822266 -38.45259475708008 19.02356910705566 -38.59768295288086 19.13761520385742 -38.59768295288086 C 19.14876937866211 -38.59768295288086 19.15730285644531 -38.59650421142578 19.16299247741699 -38.59417343139648 C 19.711181640625 -38.36980438232422 21.10370254516602 -36.74502563476562 23.36794853210449 -32.85778427124023 C 25.4491138458252 -29.28486061096191 27.74631500244141 -24.69635009765625 29.83639144897461 -19.93751525878906 C 32.23334884643555 -14.47994995117188 34.25262451171875 -9.038860321044922 35.6759033203125 -4.2024827003479 C 37.35394668579102 1.499561548233032 38.20478057861328 6.303561687469482 38.20478057861328 10.07608413696289 C 38.20478057861328 18.18782806396484 36.59394836425781 25.58563995361328 33.66902542114258 30.90674018859863 C 32.18859100341797 33.59998321533203 30.416259765625 35.69522857666016 28.40125846862793 37.13426208496094 C 26.30840301513672 38.62890625 23.98432540893555 39.38674926757812 21.49359130859375 39.38674926757812 Z" stroke="none"/>
        <path d="M 19.09460067749023 -38.054931640625 C 18.76321983337402 -37.85964965820312 17.55966377258301 -36.91593170166016 15.10583686828613 -32.64703750610352 C 13.1175708770752 -29.1880931854248 10.89517021179199 -24.56630516052246 8.848026275634766 -19.63306045532227 C 6.603424072265625 -14.2240047454834 4.700168609619141 -8.770049095153809 3.344001770019531 -3.860794067382812 C 1.78863525390625 1.769517183303833 1.000003814697266 6.458561420440674 1.000003814697266 10.07608413696289 C 1.000003814697266 13.94296169281006 1.607204437255859 17.73832893371582 2.804725646972656 21.35675048828125 C 3.932048797607422 24.76301765441895 5.525070190429688 27.85560607910156 7.53953742980957 30.5485954284668 C 9.469436645507812 33.1285285949707 11.75212478637695 35.25001525878906 14.14082527160645 36.6837272644043 C 16.57635879516602 38.14554977416992 19.05018043518066 38.88674926757812 21.49359130859375 38.88674926757812 C 23.87801361083984 38.88674926757812 26.10432434082031 38.16022872924805 28.11068153381348 36.72735977172852 C 30.06415939331055 35.33226013183594 31.78683662414551 33.29288482666016 33.23085784912109 30.66588401794434 C 36.11591339111328 25.41731643676758 37.70478057861328 18.10505104064941 37.70478057861328 10.07608413696289 C 37.70478057861328 6.363972663879395 36.86630249023438 1.62623929977417 35.212646484375 -4.005538463592529 C 33.80387115478516 -8.803327560424805 31.80271530151367 -14.20600509643555 29.4255256652832 -19.62949371337891 C 27.35310363769531 -24.3576831817627 25.07061386108398 -28.9279613494873 22.99852561950684 -32.49841690063477 C 20.84665107727051 -36.20635986328125 19.57508087158203 -37.69203567504883 19.09460067749023 -38.054931640625 M 19.13761901855469 -39.09769439697266 C 19.2139949798584 -39.09769439697266 19.28565216064453 -39.08424377441406 19.35239219665527 -39.05692672729492 C 22.72731399536133 -37.67557144165039 38.70478057861328 -6.367038249969482 38.70478057861328 10.07608413696289 C 38.70478057861328 26.51920509338379 32.18161392211914 39.88674926757812 21.49359130859375 39.88674926757812 C 10.8055591583252 39.88674926757812 3.814697265625e-06 26.51920509338379 3.814697265625e-06 10.07608413696289 C 3.814697265625e-06 -6.041869163513184 15.35180854797363 -39.09769439697266 19.13761901855469 -39.09769439697266 Z" stroke="none" fill="#fff"/>
      </g>
      <line id="Line_1" data-name="Line 1" x2="41" y2="66" transform="translate(537.5 343.5)" fill="none" stroke="#fff" stroke-width="2"/>
      <path id="Path_2" data-name="Path 2" d="M546.412,358.517,548.9,349.2" transform="translate(-0.145 -0.925)" fill="#fff" stroke="#fff" stroke-width="2"/>
      <path id="Path_3" data-name="Path 3" d="M546.412,367.123l5.153-17.92" transform="translate(12.122 10.42)" fill="#fff" stroke="#fff" stroke-width="2"/>
      <line id="Line_2" data-name="Line 2" y1="22.307" x2="7" transform="translate(570.5 374.193)" fill="none" stroke="#fff" stroke-width="2"/>
      <line id="Line_3" data-name="Line 3" x2="15.5" y2="2.39" transform="translate(537.5 366.193)" fill="none" stroke="#fff" stroke-width="2"/>
      <line id="Line_4" data-name="Line 4" x2="23" y2="3" transform="translate(541.5 384.5)" fill="none" stroke="#fff" stroke-width="2"/>
    </g>
  </g>
</svg>
